<?xml version="1.0" encoding="utf-8"?>
<!-- Generator: Adobe Illustrator 23.0.0, SVG Export Plug-In . SVG Version: 6.00 Build 0)  -->
<svg version="1.1" id="Capa_1" xmlns="http://www.w3.org/2000/svg" xmlns:xlink="http://www.w3.org/1999/xlink" x="0px" y="0px"
	 viewBox="0 0 1176.47 508.85" style="enable-background:new 0 0 1176.47 508.85;" xml:space="preserve">
<style type="text/css">
	.st0{fill:#305395;}
	.st1{fill:#7C98C5;}
</style>
<path class="st0" d="M333.78,139.14v230.6c0,54.08-12.65,91.27-37.98,111.41c-23.85,18.48-66.96,27.7-129.27,27.7
	c-62.32,0-105.17-9.22-128.55-27.7C12.67,461.01,0,423.82,0,369.73v-230.6C0,85.02,12.67,47.89,37.98,27.7
	C61.35,9.23,104.21,0,166.53,0c62.31,0,105.42,9.23,129.27,27.7C321.12,47.89,333.78,85.02,333.78,139.14 M201.59,113.37
	c0-22.76-11.7-34.14-35.06-34.14c-22.89,0-34.33,11.38-34.33,34.14v282.11c0,22.77,11.44,34.16,34.33,34.16
	c23.36,0,35.06-11.39,35.06-34.16V113.37z"/>
<polygon class="st1" points="866.53,508.82 712.31,508.82 712.31,101.13 629.53,508.82 508.07,508.82 425.26,91.22 425.26,508.82 
	315.49,508.82 315.49,0 518.92,0 577.73,356.87 637.24,0 866.53,0 "/>
<path class="st0" d="M1030.25,416.29c-7.08,13.66-23.02,20.49-48.02,20.49h-12.78V265.64h14.27c24.97,0,41.51,9.73,49.49,29.1
	c4.51,10.58,6.78,29.69,6.78,57.49C1040,382.63,1036.75,404.01,1030.25,416.29 M1030.54,182.38c-6.18,9.28-20.85,13.84-43.78,13.84
	h-17.3V70.71h14.27c24.97,0,41.02,4.38,47.99,13.25c5.53,7,8.28,22.26,8.28,45.58C1040,155.56,1036.84,173.17,1030.54,182.38
	 M866.53,508.82h126.72c73.72,0,121.13-7.24,142.38-21.82c27.26-17.59,40.84-57.67,40.84-120.22c0-30.43-1.97-53.28-5.9-68.72
	c-6.98-26.47-20.77-44.34-41.62-53.56c-10.82-4.81-24.72-8.58-41.53-11.19v-1.32c31.18-9.73,52.75-22.7,64.55-39
	c11.41-15,17.12-37.7,17.12-68.1c0-28.66-2.27-50.39-6.69-65.38c-9.44-31.28-35.93-49.78-79.4-55.57
	C1062.72,1.32,1035.48,0,1001.44,0H866.53V508.82z"/>
<g>
</g>
<g>
</g>
<g>
</g>
<g>
</g>
<g>
</g>
<g>
</g>
</svg>
